<svg xmlns="http://www.w3.org/2000/svg" xmlns:xlink="http://www.w3.org/1999/xlink" viewBox="356.88 264.57 131.22 156.35"><defs><path id="b" d="M.68.73.43 0H.24L0 .73h.2l.15-.5.16.5z"/><path id="c" d="M.24 0H.07v.55h.17zm0 .63H.06v.13h.18z"/><path id="d" d="M.37.14v.12L.24.24.21.2.2.17Q.2.14.22.12L.28.1l.05.01zm0-.08L.25-.01H.2a.2.2 0 0 0-.12.04.2.2 0 0 0-.05.13q0 .06.03.1l.07.06.11.03.14.01Q.37.4.34.43l-.1.01H.15L.08.4H.07v.13l.2.02q.15 0 .2-.04Q.54.47.54.37V0H.37z"/><path id="f" d="M.24 0H.07v.76h.17z"/><path id="g" d="M.56 0H.4v.06L.32 0H.23a.2.2 0 0 0-.15.07.4.4 0 0 0-.05.21L.04.4.1.5a.2.2 0 0 0 .23.06L.39.53v.23h.17zM.4.15v.27L.36.43H.32Q.26.45.23.4L.2.27Q.2.2.23.15T.3.12h.04z"/><path id="h" d="M.7 0H.52L.24.5V0H.08v.73H.3L.53.3v.42H.7z"/><path id="i" d="M.33-.01.21 0l-.1.06-.06.08-.02.13q0 .08.02.14a.3.3 0 0 0 .16.14.4.4 0 0 0 .3-.03V.37H.5L.43.42.4.43.34.44a.1.1 0 0 1-.1-.05A.2.2 0 0 1 .2.27Q.2.2.24.15A.1.1 0 0 1 .34.1l.1.02.03.02.02.02h.02V.03L.4-.01z"/><path id="j" d="M.6.27a.3.3 0 0 0-.08-.2.3.3 0 0 0-.21-.09.3.3 0 0 0-.21.08.3.3 0 0 0-.07.21Q.03.42.1.5t.2.08Q.46.57.53.49A.3.3 0 0 0 .59.27m-.17 0L.4.35.39.41.35.44H.27L.23.4.21.36V.19L.23.14.26.11a.1.1 0 0 1 .1 0l.03.03L.4.2z"/><path id="k" d="M.58 0H.4v.34L.38.39.37.4.32.42H.28L.24.38V0H.07v.55h.17V.49l.08.05.09.02Q.49.56.53.51.58.46.58.36z"/><path id="n" d="M.02 0h.3v.02Q.2 0 .21.1v.44q-.02.1.1.1v.01h-.3V.64q.11.02.1-.09V.11Q.12 0 .01 0z"/><path id="o" d="M.48.23v.23H.46Q.45.36.35.36H.2V.6q0 .04.03.03h.14C.49.62.5.61.52.52h.03v.14H0V.64Q.11.64.1.55V.12Q.12 0 0 .02V0h.3v.02Q.2.02.2.1v.22h.15q.11.01.1-.1z"/><path id="p" d="M.04.26V.19h.24v.07z"/><path id="q" d="M.47.14Q.4.07.36.08H.13L.3.25Q.42.4.42.5.41.67.24.68A.2.2 0 0 1 .09.6Q.05.57.03.48h.02Q.1.6.2.6.33.6.34.46.34.34.2.2L.03.01V0h.39z"/><path id="r" d="M.25.68A.2.2 0 0 1 .12.62Q.02.52.02.34.03.16.1.05A.2.2 0 0 1 .25 0q.08 0 .13.05.1.1.1.29c0 .2-.1.35-.23.35m0-.03Q.38.65.38.33T.25 0 .12.33q0 .32.13.32"/><path id="s" d="M.18.58h.2L.4.6l.04.1H.43Q.4.66.38.66h-.2L.05.42h.02l.1-.03Q.37.34.37.2.35.03.22.02L.15.05Q.11.1.07.08.03.08.03.05q0-.06.12-.06.13 0 .21.07.06.07.07.18 0 .1-.07.17Q.3.47.14.5z"/><path id="t" d="m.15.33.1-.01q.1-.04.1-.15Q.36.04.24.02q-.05 0-.1.03L.08.08Q.04.08.04.04T.16 0t.2.06.07.17L.4.35.3.4q.1.07.1.14Q.39.67.24.68A.2.2 0 0 1 .11.63.2.2 0 0 1 .04.5h.02q.05.1.15.1t.1-.1A.1.1 0 0 0 .29.4L.15.34z"/><path id="u" d="M.47.23h-.1v.45H.33L0 .23V.17h.3V0h.08v.17h.1zM.3.23H.05L.3.57z"/><path id="w" d="M.45.68A.4.4 0 0 1 .2.6.4.4 0 0 1 .03.28Q.03.14.1.05A.2.2 0 0 1 .26 0q.19.02.2.23 0 .2-.18.2Q.22.44.15.39q.05.24.3.29m-.2-.3q.13 0 .13-.2Q.38.02.27.01.13.02.13.26q0 .07.02.1z"/><path id="x" d="M.7.02Q.66 0 .63.1L.37.67H.35L.14.18C.07.04.06.02 0 .02V0h.2v.02Q.14.02.14.06L.15.1.2.22h.26L.5.12.52.05Q.52.02.45.02V0h.26zM.2.26l.12.27.12-.27z"/><path id="y" d="M.02.64Q.12.66.1.55V.12Q.12 0 .02.02V0H.3v.02Q.19 0 .2.1v.18h.07q.11 0 .18.03.1.06.1.16Q.54.54.5.6.43.66.28.66H.02zM.2.6q0 .03.04.03.2 0 .2-.16Q.43.32.25.33H.2z"/><path id="z" d="M.7.66H.48V.64q.11.02.1-.13V.18l-.4.48H.01V.64Q.06.65.11.6V.15Q.12 0 0 .02V0h.24v.02Q.14 0 .15.15v.39L.6-.01h.02V.5Q.6.65.71.64z"/><path id="A" d="M.3.66H0V.64Q.11.64.1.55V.11Q.1 0 0 0h.54L.6.17H.57Q.53.03.35.04H.3Q.19.03.2.08v.47q-.01.1.1.1z"/><path id="B" d="M.45.02Q.34 0 .35.1v.51h.06C.53.62.55.6.57.49h.02v.17H.02V.5h.02C.06.6.08.62.2.62h.05v-.5c0-.09 0-.1-.09-.1V0h.3z"/><path id="C" d="M.47.27h-.1L.4.4h.1v.06H.4l.04.2H.37L.34.46H.21l.03.2H.18L.15.46H.03V.4h.11L.12.27H0V.22h.11L.08 0h.06l.03.22H.3L.27 0h.06l.03.22h.11zM.33.4.31.27H.18L.2.4z"/><path id="D" d="M.02 0H.3q.19 0 .28.09.1.1.1.24A.3.3 0 0 1 .6.56q-.11.1-.31.1H.02V.64Q.12.66.1.55V.11Q.12.01.02 0M.2.59q0 .04.06.04.12 0 .2-.06A.3.3 0 0 0 .58.33Q.58.15.45.08a.4.4 0 0 0-.2-.04Q.22.03.22.08z"/><path id="E" d="M.7.66H.5V.64Q.56.64.55.6V.53L.4.16.25.5.2.6q0 .03.04.03h.03v.02H.02V.64q.05.02.1-.1l.25-.55h.01L.6.55q.04.1.1.1z"/><path id="H" d="M.44.07.4.05Q.36.05.37.1v.2q0 .07-.02.1Q.32.46.22.46.07.45.06.35.06.3.1.3t.04.05v.04q0 .04.07.05Q.3.44.3.35V.3L.07.2A.1.1 0 0 1 .04.1q0-.1.1-.1.07 0 .15.07Q.29 0 .35 0t.1.05zM.28.12Q.29.08.26.07L.2.05Q.13.05.13.12q-.01.1.16.16zm-.1.39.15.1Q.37.6.37.64q0 .03-.03.03T.3.65L.15.51z"/><path id="I" d="M.47.39v.04H.34L.32.45.24.46A.16.16 0 0 1 .07.3Q.06.2.17.16L.13.14.1.1Q.07.07.07.05T.13 0Q.02-.07.03-.12q.01-.09.17-.1.12 0 .2.07.06.04.06.1 0 .1-.12.1L.21.07Q.13.06.13.1.15.14.2.15h.06q.06 0 .1.04.06.04.06.11L.39.4zm-.32-.4H.3q.13 0 .12-.05 0-.1-.19-.1Q.1-.16.1-.1q-.01.03.05.1m0 .34q0 .1.08.1Q.27.43.3.37L.33.26Q.33.18.25.17q-.1.01-.1.16"/><path id="J" d="M.02 0h.23v.01q-.08 0-.07.1v.35L.01.4h.04Q.1.4.1.33V.1Q.11.01.02.01zm.1.68L.09.63q0-.05.05-.05t.05.05-.05.05"/><path id="K" d="M.02 0h.21v.01Q.16.01.16.07v.28Q.23.4.26.4.35.4.35.3V.1Q.34 0 .28 0h.2v.01Q.43.01.43.08v.23q0 .15-.11.15Q.25.46.16.38v.08L.01.41V.4h.02Q.08.4.08.34V.09Q.08.01.02.01z"/><path id="L" d="M.44.07.4.05Q.36.05.37.1v.2q0 .07-.02.1Q.32.46.22.46.07.45.06.35.06.3.1.3t.04.05v.04q0 .04.07.05Q.3.44.3.35V.3L.07.2A.1.1 0 0 1 .04.1q0-.1.1-.1.07 0 .15.07Q.29 0 .35 0t.1.05zM.28.12Q.29.08.26.07L.2.05Q.13.05.13.12q-.01.1.16.16z"/><path id="T" d="M.06-.02q.15.01.23.08.16.12.17.33Q.44.66.24.68.04.66.03.44q0-.19.18-.2.07 0 .15.05a.4.4 0 0 0-.3-.3zm.3.37L.35.32.25.28q-.12 0-.13.2 0 .09.04.14l.07.03Q.36.65.36.39z"/><path id="U" d="M.5.06H.46Q.42.05.42.1v.57L.27.64V.62H.3Q.34.63.34.57V.42Q.28.46.24.46.03.44.02.2.03 0 .2 0q.09 0 .13.07V0L.5.04zM.34.1.32.07.25.04Q.12.05.11.24q0 .19.13.2a.1.1 0 0 0 .1-.1z"/><path id="V" d="M.4.16Q.36.06.26.06.17.06.12.14L.1.28h.3Q.4.37.36.4a.2.2 0 0 1-.13.06A.2.2 0 0 1 .1.41Q.02.35.02.2.03.01.22 0q.14 0 .2.17zM.1.31q0 .12.1.11.1.01.1-.11z"/><clipPath id="a"><path d="M0 0h841.89v595.28H0Z"/></clipPath><clipPath id="l"><path d="M611.89 545.28h230v-30h-230Z"/></clipPath><clipPath id="m"><path d="M612.89 544.28h228v-28h-228Z"/></clipPath><clipPath id="F"><path d="M611.89 585.28h230v-30h-230Z"/></clipPath><clipPath id="G"><path d="M612.89 584.28h228v-28h-228Z"/></clipPath></defs><g fill="#252e4f" fill-rule="evenodd" clip-path="url(#a)"><path d="M440.68 367.43H413.7c10.92-10.6 73.89-57.83-22.17-73.25 91.56 2.4 65.06 49.15 49.15 73.25"/><path d="M455.5 265.24c-108.48-5.52-106.47 53.74-89.9 78.85l21.1.5c-11.39-11.04-41.36-74.32 68.8-79.35"/><path d="M404.95 291.44c5.16-9.78 20.2-18.5 52.56-23.69-95.43 2.52-67.8 51.73-51.23 76.85h28.13c-7.58-7.35-39.13-31.8-29.98-52.09 92.65 8.42 65.57 64.7 55.05 74.92h20.24c15.29-23.17 17.64-76.64-74.77-76"/></g><use xlink:href="#b" fill="#252e4f" data-text="V" transform="matrix(31.8821 0 0 -31.8821 358.6 397.89)"/><use xlink:href="#c" fill="#252e4f" data-text="i" transform="matrix(31.8821 0 0 -31.8821 380.38 397.89)"/><use xlink:href="#d" fill="#252e4f" data-text="a" transform="matrix(31.8821 0 0 -31.8821 390.26 397.89)"/><use xlink:href="#f" fill="#252e4f" data-text="l" transform="matrix(31.8821 0 0 -31.8821 409.61 397.89)"/><use xlink:href="#c" fill="#252e4f" data-text="i" transform="matrix(31.8821 0 0 -31.8821 419.5 397.89)"/><use xlink:href="#g" fill="#252e4f" data-text="d" transform="matrix(31.8821 0 0 -31.8821 429.38 397.89)"/><use xlink:href="#d" fill="#252e4f" data-text="a" transform="matrix(31.8821 0 0 -31.8821 449.69 397.89)"/><use xlink:href="#g" fill="#252e4f" data-text="d" transform="matrix(31.8821 0 0 -31.8821 469.04 397.89)"/><use xlink:href="#h" fill="#252e4f" data-text="N" transform="matrix(22.8589 0 0 -22.8589 374.24 420.15)"/><use xlink:href="#d" fill="#252e4f" data-text="a" transform="matrix(22.8589 0 0 -22.8589 391.85 420.15)"/><use xlink:href="#i" fill="#252e4f" data-text="c" transform="matrix(22.8589 0 0 -22.8589 405.55 420.15)"/><use xlink:href="#c" fill="#252e4f" data-text="i" transform="matrix(22.8589 0 0 -22.8589 417.6 420.15)"/><use xlink:href="#j" fill="#252e4f" data-text="o" transform="matrix(22.8589 0 0 -22.8589 424.5 420.15)"/><use xlink:href="#k" fill="#252e4f" data-text="n" transform="matrix(22.8589 0 0 -22.8589 438.6 420.15)"/><use xlink:href="#d" fill="#252e4f" data-text="a" transform="matrix(22.8589 0 0 -22.8589 453.23 420.15)"/><use xlink:href="#f" fill="#252e4f" data-text="l" transform="matrix(22.8589 0 0 -22.8589 466.92 420.15)"/><g clip-path="url(#l)"><g clip-path="url(#m)"><use xlink:href="#n" data-text="I" transform="matrix(11 0 0 -11 613.89 534.04)"/><use xlink:href="#o" data-text="F" transform="matrix(11 0 0 -11 617.55 534.04)"/><use xlink:href="#p" data-text="-" transform="matrix(11 0 0 -11 623.67 534.04)"/><use xlink:href="#q" data-text="2" transform="matrix(11 0 0 -11 627.33 534.04)"/><use xlink:href="#r" data-text="0" transform="matrix(11 0 0 -11 632.83 534.04)"/><use xlink:href="#q" data-text="2" transform="matrix(11 0 0 -11 638.33 534.04)"/><use xlink:href="#s" data-text="5" transform="matrix(11 0 0 -11 643.83 534.04)"/><use xlink:href="#p" data-text="-" transform="matrix(11 0 0 -11 649.33 534.04)"/><use xlink:href="#r" data-text="0" transform="matrix(11 0 0 -11 653 534.04)"/><use xlink:href="#s" data-text="5" transform="matrix(11 0 0 -11 658.5 534.04)"/><use xlink:href="#s" data-text="5" transform="matrix(11 0 0 -11 664 534.04)"/><use xlink:href="#t" data-text="3" transform="matrix(11 0 0 -11 669.5 534.04)"/><use xlink:href="#s" data-text="5" transform="matrix(11 0 0 -11 675 534.04)"/><use xlink:href="#u" data-text="4" transform="matrix(11 0 0 -11 680.5 534.04)"/><use xlink:href="#u" data-text="4" transform="matrix(11 0 0 -11 686 534.04)"/><use xlink:href="#w" data-text="6" transform="matrix(11 0 0 -11 691.5 534.04)"/><use xlink:href="#p" data-text="-" transform="matrix(11 0 0 -11 697 534.04)"/><use xlink:href="#x" data-text="A" transform="matrix(11 0 0 -11 700.66 534.04)"/><use xlink:href="#y" data-text="P" transform="matrix(11 0 0 -11 708.6 534.04)"/><use xlink:href="#z" data-text="N" transform="matrix(11 0 0 -11 714.72 534.04)"/><use xlink:href="#p" data-text="-" transform="matrix(11 0 0 -11 722.66 534.04)"/><use xlink:href="#x" data-text="A" transform="matrix(11 0 0 -11 726.32 534.04)"/><use xlink:href="#A" data-text="L" transform="matrix(11 0 0 -11 734.26 534.04)"/><use xlink:href="#B" data-text="T" transform="matrix(11 0 0 -11 740.98 534.04)"/><use xlink:href="#x" data-text="A" transform="matrix(11 0 0 -11 747.7 534.04)"/><use xlink:href="#C" data-text="#" transform="matrix(11 0 0 -11 755.65 534.04)"/><use xlink:href="#D" data-text="D" transform="matrix(11 0 0 -11 761.15 534.04)"/><use xlink:href="#z" data-text="N" transform="matrix(11 0 0 -11 769.09 534.04)"/><use xlink:href="#E" data-text="V" transform="matrix(11 0 0 -11 777.03 534.04)"/></g></g><g clip-path="url(#F)"><g clip-path="url(#G)"><use xlink:href="#y" data-text="P" transform="matrix(11 0 0 -11 613.89 574.04)"/><use xlink:href="#H" data-text="á" transform="matrix(11 0 0 -11 620 574.04)"/><use xlink:href="#I" data-text="g" transform="matrix(11 0 0 -11 624.89 574.04)"/><use xlink:href="#J" data-text="i" transform="matrix(11 0 0 -11 630.39 574.04)"/><use xlink:href="#K" data-text="n" transform="matrix(11 0 0 -11 633.45 574.04)"/><use xlink:href="#L" data-text="a" transform="matrix(11 0 0 -11 638.95 574.04)"/><use xlink:href="#T" data-text="9" transform="matrix(11 0 0 -11 646.58 574.04)"/><use xlink:href="#U" data-text="d" transform="matrix(11 0 0 -11 654.83 574.04)"/><use xlink:href="#V" data-text="e" transform="matrix(11 0 0 -11 660.33 574.04)"/><use xlink:href="#q" data-text="2" transform="matrix(11 0 0 -11 667.97 574.04)"/><use xlink:href="#q" data-text="2" transform="matrix(11 0 0 -11 673.47 574.04)"/></g></g></svg>