<svg xmlns="http://www.w3.org/2000/svg" xmlns:xlink="http://www.w3.org/1999/xlink" viewBox="356.88 264.57 131.22 156.35"><defs><path id="b" d="M.68.73.43 0H.24L0 .73h.2l.15-.5.16.5z"/><path id="c" d="M.24 0H.07v.55h.17zm0 .63H.06v.13h.18z"/><path id="d" d="M.37.14v.12L.24.24.21.2.2.17Q.2.14.22.12L.28.1l.05.01zm0-.08L.25-.01H.2a.2.2 0 0 0-.12.04.2.2 0 0 0-.05.13q0 .06.03.1l.07.06.11.03.14.01Q.37.4.34.43l-.1.01H.15L.08.4H.07v.13l.2.02q.15 0 .2-.04Q.54.47.54.37V0H.37z"/><path id="f" d="M.24 0H.07v.76h.17z"/><path id="g" d="M.56 0H.4v.06L.32 0H.23a.2.2 0 0 0-.15.07.4.4 0 0 0-.05.21L.04.4.1.5a.2.2 0 0 0 .23.06L.39.53v.23h.17zM.4.15v.27L.36.43H.32Q.26.45.23.4L.2.27Q.2.2.23.15T.3.12h.04z"/><path id="h" d="M.7 0H.52L.24.5V0H.08v.73H.3L.53.3v.42H.7z"/><path id="i" d="M.33-.01.21 0l-.1.06-.06.08-.02.13q0 .08.02.14a.3.3 0 0 0 .16.14.4.4 0 0 0 .3-.03V.37H.5L.43.42.4.43.34.44a.1.1 0 0 1-.1-.05A.2.2 0 0 1 .2.27Q.2.2.24.15A.1.1 0 0 1 .34.1l.1.02.03.02.02.02h.02V.03L.4-.01z"/><path id="j" d="M.6.27a.3.3 0 0 0-.08-.2.3.3 0 0 0-.21-.09.3.3 0 0 0-.21.08.3.3 0 0 0-.07.21Q.03.42.1.5t.2.08Q.46.57.53.49A.3.3 0 0 0 .59.27m-.17 0L.4.35.39.41.35.44H.27L.23.4.21.36V.19L.23.14.26.11a.1.1 0 0 1 .1 0l.03.03L.4.2z"/><path id="k" d="M.58 0H.4v.34L.38.39.37.4.32.42H.28L.24.38V0H.07v.55h.17V.49l.08.05.09.02Q.49.56.53.51.58.46.58.36z"/><clipPath id="a"><path d="M0 0h841.89v595.28H0Z"/></clipPath></defs><g fill="#252e4f" fill-rule="evenodd" clip-path="url(#a)"><path d="M440.68 367.43H413.7c10.92-10.6 73.89-57.83-22.17-73.25 91.56 2.4 65.06 49.15 49.15 73.25"/><path d="M455.5 265.24c-108.48-5.52-106.47 53.74-89.9 78.85l21.1.5c-11.39-11.04-41.36-74.32 68.8-79.35"/><path d="M404.95 291.44c5.16-9.78 20.2-18.5 52.56-23.69-95.43 2.52-67.8 51.73-51.23 76.85h28.13c-7.58-7.35-39.13-31.8-29.98-52.09 92.65 8.42 65.57 64.7 55.05 74.92h20.24c15.29-23.17 17.64-76.64-74.77-76"/></g><use xlink:href="#b" fill="#252e4f" data-text="V" transform="matrix(31.8821 0 0 -31.8821 358.6 397.89)"/><use xlink:href="#c" fill="#252e4f" data-text="i" transform="matrix(31.8821 0 0 -31.8821 380.38 397.89)"/><use xlink:href="#d" fill="#252e4f" data-text="a" transform="matrix(31.8821 0 0 -31.8821 390.26 397.89)"/><use xlink:href="#f" fill="#252e4f" data-text="l" transform="matrix(31.8821 0 0 -31.8821 409.61 397.89)"/><use xlink:href="#c" fill="#252e4f" data-text="i" transform="matrix(31.8821 0 0 -31.8821 419.5 397.89)"/><use xlink:href="#g" fill="#252e4f" data-text="d" transform="matrix(31.8821 0 0 -31.8821 429.38 397.89)"/><use xlink:href="#d" fill="#252e4f" data-text="a" transform="matrix(31.8821 0 0 -31.8821 449.69 397.89)"/><use xlink:href="#g" fill="#252e4f" data-text="d" transform="matrix(31.8821 0 0 -31.8821 469.04 397.89)"/><use xlink:href="#h" fill="#252e4f" data-text="N" transform="matrix(22.8589 0 0 -22.8589 374.24 420.15)"/><use xlink:href="#d" fill="#252e4f" data-text="a" transform="matrix(22.8589 0 0 -22.8589 391.85 420.15)"/><use xlink:href="#i" fill="#252e4f" data-text="c" transform="matrix(22.8589 0 0 -22.8589 405.55 420.15)"/><use xlink:href="#c" fill="#252e4f" data-text="i" transform="matrix(22.8589 0 0 -22.8589 417.6 420.15)"/><use xlink:href="#j" fill="#252e4f" data-text="o" transform="matrix(22.8589 0 0 -22.8589 424.5 420.15)"/><use xlink:href="#k" fill="#252e4f" data-text="n" transform="matrix(22.8589 0 0 -22.8589 438.6 420.15)"/><use xlink:href="#d" fill="#252e4f" data-text="a" transform="matrix(22.8589 0 0 -22.8589 453.23 420.15)"/><use xlink:href="#f" fill="#252e4f" data-text="l" transform="matrix(22.8589 0 0 -22.8589 466.92 420.15)"/></svg>